<?xml version="1.0" standalone="no"?>
<!DOCTYPE svg PUBLIC "-//W3C//DTD SVG 20010904//EN"
 "http://www.w3.org/TR/2001/REC-SVG-20010904/DTD/svg10.dtd">
<svg version="1.0" xmlns="http://www.w3.org/2000/svg"
 width="700.000000pt" height="700.000000pt" viewBox="0 0 700.000000 700.000000"
 preserveAspectRatio="xMidYMid meet">
<metadata>
Created by potrace 1.14, written by Peter Selinger 2001-2017
</metadata>
<g transform="translate(0.000000,700.000000) scale(0.100000,-0.100000)"
fill="#000000" stroke="none">
<path d="M5031 6840 c-52 -19 -90 -38 -107 -54 -14 -14 -149 -134 -178 -159
-12 -10 -61 -56 -111 -102 -49 -45 -117 -107 -150 -136 -32 -30 -71 -65 -86
-79 -15 -14 -60 -55 -100 -91 -84 -76 -90 -81 -224 -204 -54 -49 -106 -97
-115 -105 -23 -20 -180 -162 -194 -175 -26 -25 -236 -216 -340 -310 -6 -5 -65
-59 -131 -120 -67 -60 -163 -148 -214 -195 -52 -47 -99 -90 -105 -96 -6 -5
-63 -57 -126 -114 -63 -57 -132 -120 -154 -140 -21 -19 -48 -44 -60 -55 -13
-11 -65 -58 -116 -105 -51 -47 -103 -94 -116 -105 -12 -11 -61 -56 -109 -100
-48 -44 -97 -88 -107 -97 -19 -16 -23 -15 -96 40 -42 31 -83 63 -92 69 -8 7
-235 180 -505 383 -269 204 -503 382 -520 396 -51 43 -125 73 -171 69 -68 -5
-69 -6 -312 -224 -41 -36 -84 -75 -96 -86 -12 -11 -53 -47 -91 -80 -134 -116
-183 -170 -194 -212 -23 -84 -6 -109 183 -278 48 -44 103 -93 121 -110 17 -16
72 -66 120 -110 49 -44 112 -101 140 -127 27 -25 59 -55 71 -65 23 -20 172
-154 214 -193 22 -20 161 -146 204 -185 78 -70 123 -115 113 -115 -7 0 -20 -8
-28 -17 -9 -10 -55 -54 -104 -98 -48 -44 -93 -84 -99 -90 -17 -15 -206 -186
-250 -225 -21 -19 -58 -53 -81 -75 -24 -22 -60 -56 -82 -75 -45 -41 -233 -210
-249 -225 -6 -5 -55 -50 -109 -100 -53 -49 -101 -91 -106 -93 -18 -7 -50 -72
-50 -104 0 -87 15 -109 191 -268 58 -52 110 -99 116 -105 6 -5 50 -46 99 -90
48 -44 106 -97 129 -118 84 -78 167 -97 253 -58 32 15 347 246 525 385 31 25
47 37 203 155 66 50 131 99 145 110 14 10 79 60 145 110 66 49 125 94 130 98
60 51 109 81 120 75 11 -6 94 -80 205 -182 57 -53 197 -179 244 -221 28 -24
77 -69 110 -100 81 -74 104 -96 187 -170 38 -34 85 -76 103 -93 18 -17 68 -62
111 -101 42 -38 90 -81 105 -95 15 -14 67 -61 115 -105 49 -44 100 -91 114
-104 80 -72 189 -172 208 -188 28 -24 180 -162 208 -188 37 -35 138 -128 234
-215 52 -47 99 -89 105 -95 6 -5 54 -48 106 -95 52 -47 104 -94 115 -105 12
-11 59 -54 104 -95 46 -41 96 -86 111 -100 15 -14 45 -41 66 -60 22 -20 89
-81 149 -136 135 -124 177 -147 265 -147 65 -1 68 0 430 180 809 400 1202 593
1211 593 5 0 40 30 78 67 52 52 73 82 90 126 l21 58 0 2404 0 2404 -23 54
c-27 59 -99 129 -162 157 -22 10 -116 55 -210 100 -93 45 -219 106 -280 135
-60 29 -189 91 -285 137 -96 47 -222 108 -280 135 -58 28 -185 89 -282 137
-224 110 -303 126 -417 86z m231 -3360 c-1 -839 -1 -1528 -1 -1532 -1 -4 -97
65 -213 153 -117 88 -224 169 -238 179 -14 11 -104 79 -200 152 -96 73 -305
232 -465 353 -159 120 -353 266 -430 325 -77 58 -213 162 -303 230 -90 68
-165 127 -167 131 -3 4 24 28 59 53 36 25 70 52 78 59 7 7 29 24 48 37 19 14
42 32 51 40 10 8 39 31 65 50 27 19 112 83 189 142 77 60 151 116 165 127 29
22 696 531 820 626 47 36 184 141 305 234 121 93 224 169 228 167 5 -1 9 -688
9 -1526z"/>
</g>
</svg>
